<mxfile host="Electron" modified="2024-05-15T15:15:58.244Z" agent="Mozilla/5.0 (Windows NT 10.0; Win64; x64) AppleWebKit/537.36 (KHTML, like Gecko) draw.io/24.2.5 Chrome/120.0.6099.109 Electron/28.1.0 Safari/537.36" etag="O1fqyD9ydY0Dp4O2hyQT" version="24.2.5" type="device">
  <diagram name="第 1 页" id="eU_Gujr9GtE93DrZlIPW">
    <mxGraphModel dx="2074" dy="1205" grid="1" gridSize="10" guides="1" tooltips="1" connect="1" arrows="1" fold="1" page="1" pageScale="1" pageWidth="827" pageHeight="1169" math="0" shadow="0">
      <root>
        <mxCell id="0" />
        <mxCell id="1" parent="0" />
        <mxCell id="iDpjbAJUTqCuNNh2Su3h-62" value="" style="rounded=0;whiteSpace=wrap;html=1;fillColor=#ffe6cc;strokeColor=#d79b00;" vertex="1" parent="1">
          <mxGeometry x="90" y="310" width="730" height="590" as="geometry" />
        </mxCell>
        <mxCell id="iDpjbAJUTqCuNNh2Su3h-22" value="" style="shape=table;startSize=0;container=1;collapsible=0;childLayout=tableLayout;fontSize=16;" vertex="1" parent="1">
          <mxGeometry x="150" y="345" width="480" height="40" as="geometry" />
        </mxCell>
        <mxCell id="iDpjbAJUTqCuNNh2Su3h-23" value="" style="shape=tableRow;horizontal=0;startSize=0;swimlaneHead=0;swimlaneBody=0;strokeColor=inherit;top=0;left=0;bottom=0;right=0;collapsible=0;dropTarget=0;fillColor=none;points=[[0,0.5],[1,0.5]];portConstraint=eastwest;fontSize=16;" vertex="1" parent="iDpjbAJUTqCuNNh2Su3h-22">
          <mxGeometry width="480" height="40" as="geometry" />
        </mxCell>
        <mxCell id="iDpjbAJUTqCuNNh2Su3h-24" value="" style="shape=partialRectangle;html=1;whiteSpace=wrap;connectable=0;strokeColor=#6c8ebf;overflow=hidden;fillColor=#dae8fc;top=0;left=0;bottom=0;right=0;pointerEvents=1;fontSize=16;" vertex="1" parent="iDpjbAJUTqCuNNh2Su3h-23">
          <mxGeometry width="60" height="40" as="geometry">
            <mxRectangle width="60" height="40" as="alternateBounds" />
          </mxGeometry>
        </mxCell>
        <mxCell id="iDpjbAJUTqCuNNh2Su3h-25" value="" style="shape=partialRectangle;html=1;whiteSpace=wrap;connectable=0;strokeColor=#b85450;overflow=hidden;fillColor=#f8cecc;top=0;left=0;bottom=0;right=0;pointerEvents=1;fontSize=16;" vertex="1" parent="iDpjbAJUTqCuNNh2Su3h-23">
          <mxGeometry x="60" width="60" height="40" as="geometry">
            <mxRectangle width="60" height="40" as="alternateBounds" />
          </mxGeometry>
        </mxCell>
        <mxCell id="iDpjbAJUTqCuNNh2Su3h-26" value="" style="shape=partialRectangle;html=1;whiteSpace=wrap;connectable=0;strokeColor=#82b366;overflow=hidden;fillColor=#d5e8d4;top=0;left=0;bottom=0;right=0;pointerEvents=1;fontSize=16;" vertex="1" parent="iDpjbAJUTqCuNNh2Su3h-23">
          <mxGeometry x="120" width="60" height="40" as="geometry">
            <mxRectangle width="60" height="40" as="alternateBounds" />
          </mxGeometry>
        </mxCell>
        <mxCell id="iDpjbAJUTqCuNNh2Su3h-35" style="shape=partialRectangle;html=1;whiteSpace=wrap;connectable=0;strokeColor=#82b366;overflow=hidden;fillColor=#d5e8d4;top=0;left=0;bottom=0;right=0;pointerEvents=1;fontSize=16;" vertex="1" parent="iDpjbAJUTqCuNNh2Su3h-23">
          <mxGeometry x="180" width="60" height="40" as="geometry">
            <mxRectangle width="60" height="40" as="alternateBounds" />
          </mxGeometry>
        </mxCell>
        <mxCell id="iDpjbAJUTqCuNNh2Su3h-38" style="shape=partialRectangle;html=1;whiteSpace=wrap;connectable=0;strokeColor=#82b366;overflow=hidden;fillColor=#d5e8d4;top=0;left=0;bottom=0;right=0;pointerEvents=1;fontSize=16;" vertex="1" parent="iDpjbAJUTqCuNNh2Su3h-23">
          <mxGeometry x="240" width="60" height="40" as="geometry">
            <mxRectangle width="60" height="40" as="alternateBounds" />
          </mxGeometry>
        </mxCell>
        <mxCell id="iDpjbAJUTqCuNNh2Su3h-41" style="shape=partialRectangle;html=1;whiteSpace=wrap;connectable=0;strokeColor=#82b366;overflow=hidden;fillColor=#d5e8d4;top=0;left=0;bottom=0;right=0;pointerEvents=1;fontSize=16;" vertex="1" parent="iDpjbAJUTqCuNNh2Su3h-23">
          <mxGeometry x="300" width="60" height="40" as="geometry">
            <mxRectangle width="60" height="40" as="alternateBounds" />
          </mxGeometry>
        </mxCell>
        <mxCell id="iDpjbAJUTqCuNNh2Su3h-44" style="shape=partialRectangle;html=1;whiteSpace=wrap;connectable=0;strokeColor=#6c8ebf;overflow=hidden;fillColor=#dae8fc;top=0;left=0;bottom=0;right=0;pointerEvents=1;fontSize=16;" vertex="1" parent="iDpjbAJUTqCuNNh2Su3h-23">
          <mxGeometry x="360" width="60" height="40" as="geometry">
            <mxRectangle width="60" height="40" as="alternateBounds" />
          </mxGeometry>
        </mxCell>
        <mxCell id="iDpjbAJUTqCuNNh2Su3h-47" style="shape=partialRectangle;html=1;whiteSpace=wrap;connectable=0;strokeColor=#6c8ebf;overflow=hidden;fillColor=#dae8fc;top=0;left=0;bottom=0;right=0;pointerEvents=1;fontSize=16;" vertex="1" parent="iDpjbAJUTqCuNNh2Su3h-23">
          <mxGeometry x="420" width="60" height="40" as="geometry">
            <mxRectangle width="60" height="40" as="alternateBounds" />
          </mxGeometry>
        </mxCell>
        <mxCell id="iDpjbAJUTqCuNNh2Su3h-50" value="Node Task Queue" style="text;html=1;align=center;verticalAlign=middle;whiteSpace=wrap;rounded=0;fontSize=15;fontStyle=1" vertex="1" parent="1">
          <mxGeometry x="680" y="350" width="130" height="30" as="geometry" />
        </mxCell>
        <mxCell id="iDpjbAJUTqCuNNh2Su3h-51" value="" style="shape=table;startSize=0;container=1;collapsible=0;childLayout=tableLayout;fontSize=16;" vertex="1" parent="1">
          <mxGeometry x="140" y="810" width="480" height="40" as="geometry" />
        </mxCell>
        <mxCell id="iDpjbAJUTqCuNNh2Su3h-52" value="" style="shape=tableRow;horizontal=0;startSize=0;swimlaneHead=0;swimlaneBody=0;strokeColor=inherit;top=0;left=0;bottom=0;right=0;collapsible=0;dropTarget=0;fillColor=none;points=[[0,0.5],[1,0.5]];portConstraint=eastwest;fontSize=16;" vertex="1" parent="iDpjbAJUTqCuNNh2Su3h-51">
          <mxGeometry width="480" height="40" as="geometry" />
        </mxCell>
        <mxCell id="iDpjbAJUTqCuNNh2Su3h-53" value="" style="shape=partialRectangle;html=1;whiteSpace=wrap;connectable=0;strokeColor=#6c8ebf;overflow=hidden;fillColor=#dae8fc;top=0;left=0;bottom=0;right=0;pointerEvents=1;fontSize=16;" vertex="1" parent="iDpjbAJUTqCuNNh2Su3h-52">
          <mxGeometry width="60" height="40" as="geometry">
            <mxRectangle width="60" height="40" as="alternateBounds" />
          </mxGeometry>
        </mxCell>
        <mxCell id="iDpjbAJUTqCuNNh2Su3h-54" value="" style="shape=partialRectangle;html=1;whiteSpace=wrap;connectable=0;strokeColor=#6c8ebf;overflow=hidden;fillColor=#dae8fc;top=0;left=0;bottom=0;right=0;pointerEvents=1;fontSize=16;" vertex="1" parent="iDpjbAJUTqCuNNh2Su3h-52">
          <mxGeometry x="60" width="60" height="40" as="geometry">
            <mxRectangle width="60" height="40" as="alternateBounds" />
          </mxGeometry>
        </mxCell>
        <mxCell id="iDpjbAJUTqCuNNh2Su3h-55" value="" style="shape=partialRectangle;html=1;whiteSpace=wrap;connectable=0;strokeColor=#9673a6;overflow=hidden;fillColor=#e1d5e7;top=0;left=0;bottom=0;right=0;pointerEvents=1;fontSize=16;" vertex="1" parent="iDpjbAJUTqCuNNh2Su3h-52">
          <mxGeometry x="120" width="60" height="40" as="geometry">
            <mxRectangle width="60" height="40" as="alternateBounds" />
          </mxGeometry>
        </mxCell>
        <mxCell id="iDpjbAJUTqCuNNh2Su3h-56" style="shape=partialRectangle;html=1;whiteSpace=wrap;connectable=0;strokeColor=#9673a6;overflow=hidden;fillColor=#e1d5e7;top=0;left=0;bottom=0;right=0;pointerEvents=1;fontSize=16;" vertex="1" parent="iDpjbAJUTqCuNNh2Su3h-52">
          <mxGeometry x="180" width="60" height="40" as="geometry">
            <mxRectangle width="60" height="40" as="alternateBounds" />
          </mxGeometry>
        </mxCell>
        <mxCell id="iDpjbAJUTqCuNNh2Su3h-57" style="shape=partialRectangle;html=1;whiteSpace=wrap;connectable=0;strokeColor=#9673a6;overflow=hidden;fillColor=#e1d5e7;top=0;left=0;bottom=0;right=0;pointerEvents=1;fontSize=16;" vertex="1" parent="iDpjbAJUTqCuNNh2Su3h-52">
          <mxGeometry x="240" width="60" height="40" as="geometry">
            <mxRectangle width="60" height="40" as="alternateBounds" />
          </mxGeometry>
        </mxCell>
        <mxCell id="iDpjbAJUTqCuNNh2Su3h-58" style="shape=partialRectangle;html=1;whiteSpace=wrap;connectable=0;strokeColor=#9673a6;overflow=hidden;fillColor=#e1d5e7;top=0;left=0;bottom=0;right=0;pointerEvents=1;fontSize=16;" vertex="1" parent="iDpjbAJUTqCuNNh2Su3h-52">
          <mxGeometry x="300" width="60" height="40" as="geometry">
            <mxRectangle width="60" height="40" as="alternateBounds" />
          </mxGeometry>
        </mxCell>
        <mxCell id="iDpjbAJUTqCuNNh2Su3h-59" style="shape=partialRectangle;html=1;whiteSpace=wrap;connectable=0;strokeColor=#6c8ebf;overflow=hidden;fillColor=#dae8fc;top=0;left=0;bottom=0;right=0;pointerEvents=1;fontSize=16;" vertex="1" parent="iDpjbAJUTqCuNNh2Su3h-52">
          <mxGeometry x="360" width="60" height="40" as="geometry">
            <mxRectangle width="60" height="40" as="alternateBounds" />
          </mxGeometry>
        </mxCell>
        <mxCell id="iDpjbAJUTqCuNNh2Su3h-60" style="shape=partialRectangle;html=1;whiteSpace=wrap;connectable=0;strokeColor=#6c8ebf;overflow=hidden;fillColor=#dae8fc;top=0;left=0;bottom=0;right=0;pointerEvents=1;fontSize=16;" vertex="1" parent="iDpjbAJUTqCuNNh2Su3h-52">
          <mxGeometry x="420" width="60" height="40" as="geometry">
            <mxRectangle width="60" height="40" as="alternateBounds" />
          </mxGeometry>
        </mxCell>
        <mxCell id="iDpjbAJUTqCuNNh2Su3h-61" value="If child node is leaf node" style="rounded=0;whiteSpace=wrap;html=1;fontSize=15;fontStyle=1;fillColor=#f8cecc;strokeColor=#b85450;" vertex="1" parent="1">
          <mxGeometry x="190" y="500" width="120" height="60" as="geometry" />
        </mxCell>
        <mxCell id="iDpjbAJUTqCuNNh2Su3h-63" value="" style="endArrow=classic;html=1;rounded=0;exitX=0.5;exitY=1;exitDx=0;exitDy=0;" edge="1" parent="1" source="iDpjbAJUTqCuNNh2Su3h-83" target="iDpjbAJUTqCuNNh2Su3h-61">
          <mxGeometry width="50" height="50" relative="1" as="geometry">
            <mxPoint x="390" y="640" as="sourcePoint" />
            <mxPoint x="440" y="590" as="targetPoint" />
          </mxGeometry>
        </mxCell>
        <mxCell id="iDpjbAJUTqCuNNh2Su3h-64" value="If (cluster group error &amp;lt; chile lod group error) &amp;amp;&amp;amp; (cluster group error &amp;lt; parent lod group error)" style="rounded=0;whiteSpace=wrap;html=1;fontSize=15;fontStyle=1;fillColor=#f8cecc;strokeColor=#b85450;" vertex="1" parent="1">
          <mxGeometry x="170" y="610" width="350" height="60" as="geometry" />
        </mxCell>
        <mxCell id="iDpjbAJUTqCuNNh2Su3h-65" value="" style="endArrow=classic;html=1;rounded=0;exitX=0.5;exitY=1;exitDx=0;exitDy=0;entryX=0.25;entryY=0;entryDx=0;entryDy=0;" edge="1" parent="1" source="iDpjbAJUTqCuNNh2Su3h-61" target="iDpjbAJUTqCuNNh2Su3h-64">
          <mxGeometry width="50" height="50" relative="1" as="geometry">
            <mxPoint x="228" y="449" as="sourcePoint" />
            <mxPoint x="229" y="510" as="targetPoint" />
          </mxGeometry>
        </mxCell>
        <mxCell id="iDpjbAJUTqCuNNh2Su3h-66" value="Push cluster culling task" style="rounded=1;whiteSpace=wrap;html=1;fontSize=15;fontStyle=1;fillColor=#ffcc99;strokeColor=#36393d;" vertex="1" parent="1">
          <mxGeometry x="310" y="710" width="120" height="60" as="geometry" />
        </mxCell>
        <mxCell id="iDpjbAJUTqCuNNh2Su3h-67" value="" style="endArrow=classic;html=1;rounded=0;exitX=0.5;exitY=1;exitDx=0;exitDy=0;entryX=0.5;entryY=0;entryDx=0;entryDy=0;" edge="1" parent="1" source="iDpjbAJUTqCuNNh2Su3h-64" target="iDpjbAJUTqCuNNh2Su3h-66">
          <mxGeometry width="50" height="50" relative="1" as="geometry">
            <mxPoint x="390" y="640" as="sourcePoint" />
            <mxPoint x="440" y="590" as="targetPoint" />
          </mxGeometry>
        </mxCell>
        <mxCell id="iDpjbAJUTqCuNNh2Su3h-68" value="" style="endArrow=classic;html=1;rounded=0;exitX=0.5;exitY=1;exitDx=0;exitDy=0;entryX=0.304;entryY=-0.033;entryDx=0;entryDy=0;entryPerimeter=0;" edge="1" parent="1" source="iDpjbAJUTqCuNNh2Su3h-66" target="iDpjbAJUTqCuNNh2Su3h-51">
          <mxGeometry width="50" height="50" relative="1" as="geometry">
            <mxPoint x="390" y="640" as="sourcePoint" />
            <mxPoint x="440" y="590" as="targetPoint" />
          </mxGeometry>
        </mxCell>
        <mxCell id="iDpjbAJUTqCuNNh2Su3h-69" value="" style="endArrow=classic;html=1;rounded=0;exitX=0.5;exitY=1;exitDx=0;exitDy=0;entryX=0.44;entryY=0.033;entryDx=0;entryDy=0;entryPerimeter=0;" edge="1" parent="1" source="iDpjbAJUTqCuNNh2Su3h-66" target="iDpjbAJUTqCuNNh2Su3h-52">
          <mxGeometry width="50" height="50" relative="1" as="geometry">
            <mxPoint x="380" y="780" as="sourcePoint" />
            <mxPoint x="296" y="819" as="targetPoint" />
          </mxGeometry>
        </mxCell>
        <mxCell id="iDpjbAJUTqCuNNh2Su3h-70" value="" style="endArrow=classic;html=1;rounded=0;entryX=0.676;entryY=-0.083;entryDx=0;entryDy=0;entryPerimeter=0;exitX=0.5;exitY=1;exitDx=0;exitDy=0;" edge="1" parent="1" source="iDpjbAJUTqCuNNh2Su3h-66" target="iDpjbAJUTqCuNNh2Su3h-52">
          <mxGeometry width="50" height="50" relative="1" as="geometry">
            <mxPoint x="370" y="780" as="sourcePoint" />
            <mxPoint x="361" y="821" as="targetPoint" />
          </mxGeometry>
        </mxCell>
        <mxCell id="iDpjbAJUTqCuNNh2Su3h-71" value="" style="endArrow=classic;html=1;rounded=0;entryX=0.563;entryY=-0.067;entryDx=0;entryDy=0;entryPerimeter=0;exitX=0.5;exitY=1;exitDx=0;exitDy=0;" edge="1" parent="1" source="iDpjbAJUTqCuNNh2Su3h-66" target="iDpjbAJUTqCuNNh2Su3h-52">
          <mxGeometry width="50" height="50" relative="1" as="geometry">
            <mxPoint x="380" y="780" as="sourcePoint" />
            <mxPoint x="475" y="816" as="targetPoint" />
          </mxGeometry>
        </mxCell>
        <mxCell id="iDpjbAJUTqCuNNh2Su3h-72" value="Cluster Task Queue" style="text;html=1;align=center;verticalAlign=middle;whiteSpace=wrap;rounded=0;fontSize=15;fontStyle=1" vertex="1" parent="1">
          <mxGeometry x="660" y="810" width="150" height="30" as="geometry" />
        </mxCell>
        <mxCell id="iDpjbAJUTqCuNNh2Su3h-74" value="Push node culling task" style="rounded=1;whiteSpace=wrap;html=1;fontSize=15;fontStyle=1;fillColor=#ffcc99;strokeColor=#36393d;" vertex="1" parent="1">
          <mxGeometry x="400" y="500" width="120" height="60" as="geometry" />
        </mxCell>
        <mxCell id="iDpjbAJUTqCuNNh2Su3h-75" value="" style="endArrow=classic;html=1;rounded=0;exitX=1;exitY=0.5;exitDx=0;exitDy=0;entryX=0;entryY=0.5;entryDx=0;entryDy=0;" edge="1" parent="1" source="iDpjbAJUTqCuNNh2Su3h-61" target="iDpjbAJUTqCuNNh2Su3h-74">
          <mxGeometry width="50" height="50" relative="1" as="geometry">
            <mxPoint x="228" y="449" as="sourcePoint" />
            <mxPoint x="250" y="510" as="targetPoint" />
          </mxGeometry>
        </mxCell>
        <mxCell id="iDpjbAJUTqCuNNh2Su3h-76" value="" style="endArrow=classic;html=1;rounded=0;exitX=0.5;exitY=0;exitDx=0;exitDy=0;entryX=0.303;entryY=0.983;entryDx=0;entryDy=0;entryPerimeter=0;" edge="1" parent="1" source="iDpjbAJUTqCuNNh2Su3h-74" target="iDpjbAJUTqCuNNh2Su3h-22">
          <mxGeometry width="50" height="50" relative="1" as="geometry">
            <mxPoint x="390" y="640" as="sourcePoint" />
            <mxPoint x="440" y="590" as="targetPoint" />
          </mxGeometry>
        </mxCell>
        <mxCell id="iDpjbAJUTqCuNNh2Su3h-77" value="" style="endArrow=classic;html=1;rounded=0;entryX=0.694;entryY=0.95;entryDx=0;entryDy=0;entryPerimeter=0;" edge="1" parent="1" target="iDpjbAJUTqCuNNh2Su3h-23">
          <mxGeometry width="50" height="50" relative="1" as="geometry">
            <mxPoint x="460" y="500" as="sourcePoint" />
            <mxPoint x="295" y="449" as="targetPoint" />
          </mxGeometry>
        </mxCell>
        <mxCell id="iDpjbAJUTqCuNNh2Su3h-78" value="" style="endArrow=classic;html=1;rounded=0;exitX=0.5;exitY=0;exitDx=0;exitDy=0;entryX=0.568;entryY=1.117;entryDx=0;entryDy=0;entryPerimeter=0;" edge="1" parent="1" source="iDpjbAJUTqCuNNh2Su3h-74" target="iDpjbAJUTqCuNNh2Su3h-22">
          <mxGeometry width="50" height="50" relative="1" as="geometry">
            <mxPoint x="470" y="510" as="sourcePoint" />
            <mxPoint x="483" y="448" as="targetPoint" />
          </mxGeometry>
        </mxCell>
        <mxCell id="iDpjbAJUTqCuNNh2Su3h-79" value="" style="endArrow=classic;html=1;rounded=0;exitX=0.5;exitY=0;exitDx=0;exitDy=0;entryX=0.435;entryY=1.017;entryDx=0;entryDy=0;entryPerimeter=0;" edge="1" parent="1" source="iDpjbAJUTqCuNNh2Su3h-74" target="iDpjbAJUTqCuNNh2Su3h-23">
          <mxGeometry width="50" height="50" relative="1" as="geometry">
            <mxPoint x="470" y="510" as="sourcePoint" />
            <mxPoint x="423" y="455" as="targetPoint" />
          </mxGeometry>
        </mxCell>
        <mxCell id="iDpjbAJUTqCuNNh2Su3h-80" value="Y" style="text;html=1;align=center;verticalAlign=middle;whiteSpace=wrap;rounded=0;fontSize=15;fontStyle=1" vertex="1" parent="1">
          <mxGeometry x="250" y="569.5" width="60" height="30" as="geometry" />
        </mxCell>
        <mxCell id="iDpjbAJUTqCuNNh2Su3h-81" value="Y" style="text;html=1;align=center;verticalAlign=middle;whiteSpace=wrap;rounded=0;fontSize=15;fontStyle=1" vertex="1" parent="1">
          <mxGeometry x="384" y="670" width="60" height="30" as="geometry" />
        </mxCell>
        <mxCell id="iDpjbAJUTqCuNNh2Su3h-82" value="N" style="text;html=1;align=center;verticalAlign=middle;whiteSpace=wrap;rounded=0;fontSize=15;fontStyle=1" vertex="1" parent="1">
          <mxGeometry x="324" y="500" width="60" height="30" as="geometry" />
        </mxCell>
        <mxCell id="iDpjbAJUTqCuNNh2Su3h-84" value="" style="endArrow=classic;html=1;rounded=0;exitX=0.163;exitY=0.967;exitDx=0;exitDy=0;exitPerimeter=0;" edge="1" parent="1" source="iDpjbAJUTqCuNNh2Su3h-23" target="iDpjbAJUTqCuNNh2Su3h-83">
          <mxGeometry width="50" height="50" relative="1" as="geometry">
            <mxPoint x="228" y="384" as="sourcePoint" />
            <mxPoint x="246" y="500" as="targetPoint" />
          </mxGeometry>
        </mxCell>
        <mxCell id="iDpjbAJUTqCuNNh2Su3h-83" value="Culling" style="rounded=0;whiteSpace=wrap;html=1;fontSize=15;fontStyle=1;fillColor=#ffcccc;strokeColor=#36393d;" vertex="1" parent="1">
          <mxGeometry x="180" y="410" width="120" height="60" as="geometry" />
        </mxCell>
      </root>
    </mxGraphModel>
  </diagram>
</mxfile>
